<?xml version="1.0" encoding="UTF-8" standalone="no"?><svg xmlns="http://www.w3.org/2000/svg" xmlns:xlink="http://www.w3.org/1999/xlink" contentScriptType="application/ecmascript" contentStyleType="text/css" height="715px" preserveAspectRatio="none" style="width:923px;height:715px;" version="1.1" viewBox="0 0 923 715" width="923px" zoomAndPan="magnify">
    <defs>
        <filter height="300%" id="f4kc5cn2w2ky7" width="300%" x="-1" y="-1">
            <feGaussianBlur result="blurOut" stdDeviation="2.0" />
            <feColorMatrix in="blurOut" result="blurOut2" type="matrix" values="0 0 0 0 0 0 0 0 0 0 0 0 0 0 0 0 0 0 .4 0" />
            <feOffset dx="4.0" dy="4.0" in="blurOut2" result="blurOut3" />
            <feBlend in="SourceGraphic" in2="blurOut3" mode="normal" />
        </filter>
    </defs>
    <g>
        <!--MD5=[5433d9a41f76d555f091c3a57517ef6f]
class project-->
        <rect fill="#FEFECE" filter="url(#f4kc5cn2w2ky7)" height="73.9102" id="project" style="stroke: #A80036; stroke-width: 1.5;" width="73" x="355.07" y="8" />
        <ellipse cx="370.07" cy="24" fill="#ADD1B2" rx="11" ry="11" style="stroke: #A80036; stroke-width: 1.0;" />
        <path d="M372.5431,30.1431 Q371.9621,30.4419 371.3229,30.5913 Q370.6838,30.7407 369.9782,30.7407 Q367.4714,30.7407 366.1515,29.0889 Q364.8317,27.437 364.8317,24.3159 Q364.8317,21.1865 366.1515,19.5347 Q367.4714,17.8828 369.9782,17.8828 Q370.6838,17.8828 371.3312,18.0322 Q371.9787,18.1816 372.5431,18.4805 L372.5431,21.2031 Q371.9123,20.6221 371.3188,20.3523 Q370.7253,20.0825 370.0944,20.0825 Q368.7497,20.0825 368.0649,21.1492 Q367.3801,22.2158 367.3801,24.3159 Q367.3801,26.4077 368.0649,27.4744 Q368.7497,28.541 370.0944,28.541 Q370.7253,28.541 371.3188,28.2712 Q371.9123,28.0015 372.5431,27.4204 Z " /><text fill="#000000" font-family="sans-serif" font-size="12" lengthAdjust="spacingAndGlyphs" textLength="41" x="384.07" y="28.5352">project</text>
        <line style="stroke: #A80036; stroke-width: 1.5;" x1="356.07" x2="427.07" y1="40" y2="40" /><text fill="#000000" font-family="sans-serif" font-size="11" lengthAdjust="spacingAndGlyphs" textLength="10" x="361.07" y="54.6348">id</text><text fill="#000000" font-family="sans-serif" font-size="11" lengthAdjust="spacingAndGlyphs" textLength="29" x="361.07" y="67.5898">name</text>
        <line style="stroke: #A80036; stroke-width: 1.5;" x1="356.07" x2="427.07" y1="73.9102" y2="73.9102" />
        <!--MD5=[5ebc8986345199ec40860585719b354e]
class action_state-->
        <rect fill="#FEFECE" filter="url(#f4kc5cn2w2ky7)" height="125.7305" id="action_state" style="stroke: #A80036; stroke-width: 1.5;" width="100" x="623.57" y="142" />
        <ellipse cx="638.57" cy="158" fill="#ADD1B2" rx="11" ry="11" style="stroke: #A80036; stroke-width: 1.0;" />
        <path d="M641.0431,164.1431 Q640.4621,164.4419 639.8229,164.5913 Q639.1838,164.7407 638.4782,164.7407 Q635.9714,164.7407 634.6515,163.0889 Q633.3317,161.437 633.3317,158.3159 Q633.3317,155.1865 634.6515,153.5347 Q635.9714,151.8828 638.4782,151.8828 Q639.1838,151.8828 639.8312,152.0322 Q640.4787,152.1816 641.0431,152.4805 L641.0431,155.2031 Q640.4123,154.6221 639.8188,154.3523 Q639.2253,154.0825 638.5944,154.0825 Q637.2497,154.0825 636.5649,155.1492 Q635.8801,156.2158 635.8801,158.3159 Q635.8801,160.4077 636.5649,161.4744 Q637.2497,162.541 638.5944,162.541 Q639.2253,162.541 639.8188,162.2712 Q640.4123,162.0015 641.0431,161.4204 Z " /><text fill="#000000" font-family="sans-serif" font-size="12" lengthAdjust="spacingAndGlyphs" textLength="68" x="652.57" y="162.5352">action_state</text>
        <line style="stroke: #A80036; stroke-width: 1.5;" x1="624.57" x2="722.57" y1="174" y2="174" /><text fill="#000000" font-family="sans-serif" font-size="11" lengthAdjust="spacingAndGlyphs" textLength="10" x="629.57" y="188.6348">id</text><text fill="#000000" font-family="sans-serif" font-size="11" lengthAdjust="spacingAndGlyphs" textLength="54" x="629.57" y="201.5898">project_id</text><text fill="#000000" font-family="sans-serif" font-size="11" lengthAdjust="spacingAndGlyphs" textLength="30" x="629.57" y="214.5449">chara</text><text fill="#000000" font-family="sans-serif" font-size="11" lengthAdjust="spacingAndGlyphs" textLength="23" x="629.57" y="227.5">field</text><text fill="#000000" font-family="sans-serif" font-size="11" lengthAdjust="spacingAndGlyphs" textLength="22" x="629.57" y="240.4551">freq</text><text fill="#000000" font-family="sans-serif" font-size="11" lengthAdjust="spacingAndGlyphs" textLength="33" x="629.57" y="253.4102">precis</text>
        <line style="stroke: #A80036; stroke-width: 1.5;" x1="624.57" x2="722.57" y1="259.7305" y2="259.7305" />
        <!--MD5=[6c51dee4ad41011e07d0f7b1af75230a]
class search-->
        <rect fill="#FEFECE" filter="url(#f4kc5cn2w2ky7)" height="125.7305" id="search" style="stroke: #A80036; stroke-width: 1.5;" width="93" x="563.07" y="347.5" />
        <ellipse cx="588.42" cy="363.5" fill="#ADD1B2" rx="11" ry="11" style="stroke: #A80036; stroke-width: 1.0;" />
        <path d="M590.8931,369.6431 Q590.3121,369.9419 589.6729,370.0913 Q589.0338,370.2407 588.3282,370.2407 Q585.8214,370.2407 584.5015,368.5889 Q583.1817,366.937 583.1817,363.8159 Q583.1817,360.6865 584.5015,359.0347 Q585.8214,357.3828 588.3282,357.3828 Q589.0338,357.3828 589.6812,357.5322 Q590.3287,357.6816 590.8931,357.9805 L590.8931,360.7031 Q590.2623,360.1221 589.6688,359.8523 Q589.0753,359.5825 588.4444,359.5825 Q587.0997,359.5825 586.4149,360.6492 Q585.7301,361.7158 585.7301,363.8159 Q585.7301,365.9077 586.4149,366.9744 Q587.0997,368.041 588.4444,368.041 Q589.0753,368.041 589.6688,367.7712 Q590.2623,367.5015 590.8931,366.9204 Z " /><text fill="#000000" font-family="sans-serif" font-size="12" lengthAdjust="spacingAndGlyphs" textLength="38" x="604.72" y="368.0352">search</text>
        <line style="stroke: #A80036; stroke-width: 1.5;" x1="564.07" x2="655.07" y1="379.5" y2="379.5" /><text fill="#000000" font-family="sans-serif" font-size="11" lengthAdjust="spacingAndGlyphs" textLength="81" x="569.07" y="394.1348">action_state_id</text><text fill="#000000" font-family="sans-serif" font-size="11" lengthAdjust="spacingAndGlyphs" textLength="29" x="569.07" y="407.0898">name</text><text fill="#000000" font-family="sans-serif" font-size="11" lengthAdjust="spacingAndGlyphs" textLength="14" x="569.07" y="420.0449">x1</text><text fill="#000000" font-family="sans-serif" font-size="11" lengthAdjust="spacingAndGlyphs" textLength="13" x="569.07" y="433">y1</text><text fill="#000000" font-family="sans-serif" font-size="11" lengthAdjust="spacingAndGlyphs" textLength="14" x="569.07" y="445.9551">x2</text><text fill="#000000" font-family="sans-serif" font-size="11" lengthAdjust="spacingAndGlyphs" textLength="13" x="569.07" y="458.9102">y2</text>
        <line style="stroke: #A80036; stroke-width: 1.5;" x1="564.07" x2="655.07" y1="465.2305" y2="465.2305" />
        <!--MD5=[7c0ab86968468a72358aa3fcc98563a2]
class rate-->
        <rect fill="#FEFECE" filter="url(#f4kc5cn2w2ky7)" height="86.8652" id="rate" style="stroke: #A80036; stroke-width: 1.5;" width="93" x="819.07" y="367" />
        <ellipse cx="851.17" cy="383" fill="#ADD1B2" rx="11" ry="11" style="stroke: #A80036; stroke-width: 1.0;" />
        <path d="M853.6431,389.1431 Q853.0621,389.4419 852.4229,389.5913 Q851.7838,389.7407 851.0782,389.7407 Q848.5714,389.7407 847.2515,388.0889 Q845.9317,386.437 845.9317,383.3159 Q845.9317,380.1865 847.2515,378.5347 Q848.5714,376.8828 851.0782,376.8828 Q851.7838,376.8828 852.4312,377.0322 Q853.0787,377.1816 853.6431,377.4805 L853.6431,380.2031 Q853.0123,379.6221 852.4188,379.3523 Q851.8253,379.0825 851.1944,379.0825 Q849.8497,379.0825 849.1649,380.1492 Q848.4801,381.2158 848.4801,383.3159 Q848.4801,385.4077 849.1649,386.4744 Q849.8497,387.541 851.1944,387.541 Q851.8253,387.541 852.4188,387.2712 Q853.0123,387.0015 853.6431,386.4204 Z " /><text fill="#000000" font-family="sans-serif" font-size="12" lengthAdjust="spacingAndGlyphs" textLength="23" x="868.97" y="387.5352">rate</text>
        <line style="stroke: #A80036; stroke-width: 1.5;" x1="820.07" x2="911.07" y1="399" y2="399" /><text fill="#000000" font-family="sans-serif" font-size="11" lengthAdjust="spacingAndGlyphs" textLength="81" x="825.07" y="413.6348">action_state_id</text><text fill="#000000" font-family="sans-serif" font-size="11" lengthAdjust="spacingAndGlyphs" textLength="29" x="825.07" y="426.5898">name</text><text fill="#000000" font-family="sans-serif" font-size="11" lengthAdjust="spacingAndGlyphs" textLength="28" x="825.07" y="439.5449">value</text>
        <line style="stroke: #A80036; stroke-width: 1.5;" x1="820.07" x2="911.07" y1="445.8652" y2="445.8652" />
        <!--MD5=[2d3a3099b990e0d08f7e571db17ac89d]
class target-->
        <rect fill="#FEFECE" filter="url(#f4kc5cn2w2ky7)" height="73.9102" id="target" style="stroke: #A80036; stroke-width: 1.5;" width="93" x="691.07" y="373.5" />
        <ellipse cx="718.22" cy="389.5" fill="#ADD1B2" rx="11" ry="11" style="stroke: #A80036; stroke-width: 1.0;" />
        <path d="M720.6931,395.6431 Q720.1121,395.9419 719.4729,396.0913 Q718.8338,396.2407 718.1282,396.2407 Q715.6214,396.2407 714.3015,394.5889 Q712.9817,392.937 712.9817,389.8159 Q712.9817,386.6865 714.3015,385.0347 Q715.6214,383.3828 718.1282,383.3828 Q718.8338,383.3828 719.4812,383.5322 Q720.1287,383.6816 720.6931,383.9805 L720.6931,386.7031 Q720.0623,386.1221 719.4688,385.8523 Q718.8753,385.5825 718.2444,385.5825 Q716.8997,385.5825 716.2149,386.6492 Q715.5301,387.7158 715.5301,389.8159 Q715.5301,391.9077 716.2149,392.9744 Q716.8997,394.041 718.2444,394.041 Q718.8753,394.041 719.4688,393.7712 Q720.0623,393.5015 720.6931,392.9204 Z " /><text fill="#000000" font-family="sans-serif" font-size="12" lengthAdjust="spacingAndGlyphs" textLength="34" x="734.92" y="394.0352">target</text>
        <line style="stroke: #A80036; stroke-width: 1.5;" x1="692.07" x2="783.07" y1="405.5" y2="405.5" /><text fill="#000000" font-family="sans-serif" font-size="11" lengthAdjust="spacingAndGlyphs" textLength="81" x="697.07" y="420.1348">action_state_id</text><text fill="#000000" font-family="sans-serif" font-size="11" lengthAdjust="spacingAndGlyphs" textLength="28" x="697.07" y="433.0898">value</text>
        <line style="stroke: #A80036; stroke-width: 1.5;" x1="692.07" x2="783.07" y1="439.4102" y2="439.4102" />
        <!--MD5=[2dc53123067d59efe98319645dbee767]
class action_chain-->
        <rect fill="#FEFECE" filter="url(#f4kc5cn2w2ky7)" height="86.8652" id="action_chain" style="stroke: #A80036; stroke-width: 1.5;" width="102" x="237.57" y="161.5" />
        <ellipse cx="252.57" cy="177.5" fill="#ADD1B2" rx="11" ry="11" style="stroke: #A80036; stroke-width: 1.0;" />
        <path d="M255.0431,183.6431 Q254.4621,183.9419 253.8229,184.0913 Q253.1838,184.2407 252.4782,184.2407 Q249.9714,184.2407 248.6515,182.5889 Q247.3317,180.937 247.3317,177.8159 Q247.3317,174.6865 248.6515,173.0347 Q249.9714,171.3828 252.4782,171.3828 Q253.1838,171.3828 253.8312,171.5322 Q254.4787,171.6816 255.0431,171.9805 L255.0431,174.7031 Q254.4123,174.1221 253.8188,173.8523 Q253.2253,173.5825 252.5944,173.5825 Q251.2497,173.5825 250.5649,174.6492 Q249.8801,175.7158 249.8801,177.8159 Q249.8801,179.9077 250.5649,180.9744 Q251.2497,182.041 252.5944,182.041 Q253.2253,182.041 253.8188,181.7712 Q254.4123,181.5015 255.0431,180.9204 Z " /><text fill="#000000" font-family="sans-serif" font-size="12" lengthAdjust="spacingAndGlyphs" textLength="70" x="266.57" y="182.0352">action_chain</text>
        <line style="stroke: #A80036; stroke-width: 1.5;" x1="238.57" x2="338.57" y1="193.5" y2="193.5" /><text fill="#000000" font-family="sans-serif" font-size="11" lengthAdjust="spacingAndGlyphs" textLength="10" x="243.57" y="208.1348">id</text><text fill="#000000" font-family="sans-serif" font-size="11" lengthAdjust="spacingAndGlyphs" textLength="54" x="243.57" y="221.0898">project_id</text><text fill="#000000" font-family="sans-serif" font-size="11" lengthAdjust="spacingAndGlyphs" textLength="29" x="243.57" y="234.0449">name</text>
        <line style="stroke: #A80036; stroke-width: 1.5;" x1="238.57" x2="338.57" y1="240.3652" y2="240.3652" />
        <!--MD5=[e05812f413b290e477ee37a15fd993fe]
class cancel_condition-->
        <rect fill="#FEFECE" filter="url(#f4kc5cn2w2ky7)" height="125.7305" id="cancel_condition" style="stroke: #A80036; stroke-width: 1.5;" width="126" x="50.57" y="142" />
        <ellipse cx="65.57" cy="158" fill="#ADD1B2" rx="11" ry="11" style="stroke: #A80036; stroke-width: 1.0;" />
        <path d="M68.0431,164.1431 Q67.4621,164.4419 66.8229,164.5913 Q66.1838,164.7407 65.4782,164.7407 Q62.9714,164.7407 61.6515,163.0889 Q60.3317,161.437 60.3317,158.3159 Q60.3317,155.1865 61.6515,153.5347 Q62.9714,151.8828 65.4782,151.8828 Q66.1838,151.8828 66.8312,152.0322 Q67.4787,152.1816 68.0431,152.4805 L68.0431,155.2031 Q67.4123,154.6221 66.8188,154.3523 Q66.2253,154.0825 65.5944,154.0825 Q64.2497,154.0825 63.5649,155.1492 Q62.8801,156.2158 62.8801,158.3159 Q62.8801,160.4077 63.5649,161.4744 Q64.2497,162.541 65.5944,162.541 Q66.2253,162.541 66.8188,162.2712 Q67.4123,162.0015 68.0431,161.4204 Z " /><text fill="#000000" font-family="sans-serif" font-size="12" lengthAdjust="spacingAndGlyphs" textLength="94" x="79.57" y="162.5352">cancel_condition</text>
        <line style="stroke: #A80036; stroke-width: 1.5;" x1="51.57" x2="175.57" y1="174" y2="174" /><text fill="#000000" font-family="sans-serif" font-size="11" lengthAdjust="spacingAndGlyphs" textLength="54" x="56.57" y="188.6348">project_id</text><text fill="#000000" font-family="sans-serif" font-size="11" lengthAdjust="spacingAndGlyphs" textLength="63" x="56.57" y="201.5898">cancel_type</text><text fill="#000000" font-family="sans-serif" font-size="11" lengthAdjust="spacingAndGlyphs" textLength="21" x="56.57" y="214.5449">rate</text><text fill="#000000" font-family="sans-serif" font-size="11" lengthAdjust="spacingAndGlyphs" textLength="83" x="56.57" y="227.5">rate_coefficient</text><text fill="#000000" font-family="sans-serif" font-size="11" lengthAdjust="spacingAndGlyphs" textLength="62" x="56.57" y="240.4551">parameter1</text><text fill="#000000" font-family="sans-serif" font-size="11" lengthAdjust="spacingAndGlyphs" textLength="62" x="56.57" y="253.4102">parameter2</text>
        <line style="stroke: #A80036; stroke-width: 1.5;" x1="51.57" x2="175.57" y1="259.7305" y2="259.7305" />
        <!--MD5=[9bbacecf1474754eb7dc284ce9444b39]
class action_chain_cancel-->
        <rect fill="#FEFECE" filter="url(#f4kc5cn2w2ky7)" height="73.9102" id="action_chain_cancel" style="stroke: #A80036; stroke-width: 1.5;" width="144" x="41.57" y="373.5" />
        <ellipse cx="56.57" cy="389.5" fill="#ADD1B2" rx="11" ry="11" style="stroke: #A80036; stroke-width: 1.0;" />
        <path d="M59.0431,395.6431 Q58.4621,395.9419 57.8229,396.0913 Q57.1838,396.2407 56.4782,396.2407 Q53.9714,396.2407 52.6515,394.5889 Q51.3317,392.937 51.3317,389.8159 Q51.3317,386.6865 52.6515,385.0347 Q53.9714,383.3828 56.4782,383.3828 Q57.1838,383.3828 57.8312,383.5322 Q58.4787,383.6816 59.0431,383.9805 L59.0431,386.7031 Q58.4123,386.1221 57.8188,385.8523 Q57.2253,385.5825 56.5944,385.5825 Q55.2497,385.5825 54.5649,386.6492 Q53.8801,387.7158 53.8801,389.8159 Q53.8801,391.9077 54.5649,392.9744 Q55.2497,394.041 56.5944,394.041 Q57.2253,394.041 57.8188,393.7712 Q58.4123,393.5015 59.0431,392.9204 Z " /><text fill="#000000" font-family="sans-serif" font-size="12" lengthAdjust="spacingAndGlyphs" textLength="112" x="70.57" y="394.0352">action_chain_cancel</text>
        <line style="stroke: #A80036; stroke-width: 1.5;" x1="42.57" x2="184.57" y1="405.5" y2="405.5" /><text fill="#000000" font-family="sans-serif" font-size="11" lengthAdjust="spacingAndGlyphs" textLength="84" x="47.57" y="420.1348">action_chain_id</text><text fill="#000000" font-family="sans-serif" font-size="11" lengthAdjust="spacingAndGlyphs" textLength="107" x="47.57" y="433.0898">cancel_condition_id</text>
        <line style="stroke: #A80036; stroke-width: 1.5;" x1="42.57" x2="184.57" y1="439.4102" y2="439.4102" />
        <!--MD5=[c78d1528b044c271f0718284e709a679]
class action_rule-->
        <rect fill="#FEFECE" filter="url(#f4kc5cn2w2ky7)" height="164.5957" id="action_rule" style="stroke: #A80036; stroke-width: 1.5;" width="96" x="220.57" y="328" />
        <ellipse cx="236.47" cy="344" fill="#ADD1B2" rx="11" ry="11" style="stroke: #A80036; stroke-width: 1.0;" />
        <path d="M238.9431,350.1431 Q238.3621,350.4419 237.7229,350.5913 Q237.0838,350.7407 236.3782,350.7407 Q233.8714,350.7407 232.5515,349.0889 Q231.2317,347.437 231.2317,344.3159 Q231.2317,341.1865 232.5515,339.5347 Q233.8714,337.8828 236.3782,337.8828 Q237.0838,337.8828 237.7312,338.0322 Q238.3787,338.1816 238.9431,338.4805 L238.9431,341.2031 Q238.3123,340.6221 237.7188,340.3523 Q237.1253,340.0825 236.4944,340.0825 Q235.1497,340.0825 234.4649,341.1492 Q233.7801,342.2158 233.7801,344.3159 Q233.7801,346.4077 234.4649,347.4744 Q235.1497,348.541 236.4944,348.541 Q237.1253,348.541 237.7188,348.2712 Q238.3123,348.0015 238.9431,347.4204 Z " /><text fill="#000000" font-family="sans-serif" font-size="12" lengthAdjust="spacingAndGlyphs" textLength="62" x="250.67" y="348.5352">action_rule</text>
        <line style="stroke: #A80036; stroke-width: 1.5;" x1="221.57" x2="315.57" y1="360" y2="360" /><text fill="#000000" font-family="sans-serif" font-size="11" lengthAdjust="spacingAndGlyphs" textLength="10" x="226.57" y="374.6348">id</text><text fill="#000000" font-family="sans-serif" font-size="11" lengthAdjust="spacingAndGlyphs" textLength="84" x="226.57" y="387.5898">action_chain_id</text><text fill="#000000" font-family="sans-serif" font-size="11" lengthAdjust="spacingAndGlyphs" textLength="54" x="226.57" y="400.5449">motion_id</text><text fill="#000000" font-family="sans-serif" font-size="11" lengthAdjust="spacingAndGlyphs" textLength="42" x="226.57" y="413.5">move_x</text><text fill="#000000" font-family="sans-serif" font-size="11" lengthAdjust="spacingAndGlyphs" textLength="41" x="226.57" y="426.4551">move_y</text><text fill="#000000" font-family="sans-serif" font-size="11" lengthAdjust="spacingAndGlyphs" textLength="24" x="226.57" y="439.4102">next</text><text fill="#000000" font-family="sans-serif" font-size="11" lengthAdjust="spacingAndGlyphs" textLength="52" x="226.57" y="452.3652">search_id</text><text fill="#000000" font-family="sans-serif" font-size="11" lengthAdjust="spacingAndGlyphs" textLength="66" x="226.57" y="465.3203">target_value</text><text fill="#000000" font-family="sans-serif" font-size="11" lengthAdjust="spacingAndGlyphs" textLength="24" x="226.57" y="478.2754">hold</text>
        <line style="stroke: #A80036; stroke-width: 1.5;" x1="221.57" x2="315.57" y1="484.5957" y2="484.5957" />
        <!--MD5=[eb7e49ca3b4af46b4c4ed8b12b7a6c89]
class action_rule_cancel-->
        <rect fill="#FEFECE" filter="url(#f4kc5cn2w2ky7)" height="73.9102" id="action_rule_cancel" style="stroke: #A80036; stroke-width: 1.5;" width="136" x="60.57" y="592" />
        <ellipse cx="75.57" cy="608" fill="#ADD1B2" rx="11" ry="11" style="stroke: #A80036; stroke-width: 1.0;" />
        <path d="M78.0431,614.1431 Q77.4621,614.4419 76.8229,614.5913 Q76.1838,614.7407 75.4782,614.7407 Q72.9714,614.7407 71.6515,613.0889 Q70.3317,611.437 70.3317,608.3159 Q70.3317,605.1865 71.6515,603.5347 Q72.9714,601.8828 75.4782,601.8828 Q76.1838,601.8828 76.8312,602.0322 Q77.4787,602.1816 78.0431,602.4805 L78.0431,605.2031 Q77.4123,604.6221 76.8188,604.3523 Q76.2253,604.0825 75.5944,604.0825 Q74.2497,604.0825 73.5649,605.1492 Q72.8801,606.2158 72.8801,608.3159 Q72.8801,610.4077 73.5649,611.4744 Q74.2497,612.541 75.5944,612.541 Q76.2253,612.541 76.8188,612.2712 Q77.4123,612.0015 78.0431,611.4204 Z " /><text fill="#000000" font-family="sans-serif" font-size="12" lengthAdjust="spacingAndGlyphs" textLength="104" x="89.57" y="612.5352">action_rule_cancel</text>
        <line style="stroke: #A80036; stroke-width: 1.5;" x1="61.57" x2="195.57" y1="624" y2="624" /><text fill="#000000" font-family="sans-serif" font-size="11" lengthAdjust="spacingAndGlyphs" textLength="76" x="66.57" y="638.6348">action_rule_id</text><text fill="#000000" font-family="sans-serif" font-size="11" lengthAdjust="spacingAndGlyphs" textLength="107" x="66.57" y="651.5898">cancel_condition_id</text>
        <line style="stroke: #A80036; stroke-width: 1.5;" x1="61.57" x2="195.57" y1="657.9102" y2="657.9102" />
        <!--MD5=[1668e8c7d45ffcdde59c6265a12b8876]
class exaction-->
        <rect fill="#FEFECE" filter="url(#f4kc5cn2w2ky7)" height="73.9102" id="exaction" style="stroke: #A80036; stroke-width: 1.5;" width="80" x="395.57" y="168" />
        <ellipse cx="410.57" cy="184" fill="#ADD1B2" rx="11" ry="11" style="stroke: #A80036; stroke-width: 1.0;" />
        <path d="M413.0431,190.1431 Q412.4621,190.4419 411.8229,190.5913 Q411.1838,190.7407 410.4782,190.7407 Q407.9714,190.7407 406.6515,189.0889 Q405.3317,187.437 405.3317,184.3159 Q405.3317,181.1865 406.6515,179.5347 Q407.9714,177.8828 410.4782,177.8828 Q411.1838,177.8828 411.8312,178.0322 Q412.4787,178.1816 413.0431,178.4805 L413.0431,181.2031 Q412.4123,180.6221 411.8188,180.3523 Q411.2253,180.0825 410.5944,180.0825 Q409.2497,180.0825 408.5649,181.1492 Q407.8801,182.2158 407.8801,184.3159 Q407.8801,186.4077 408.5649,187.4744 Q409.2497,188.541 410.5944,188.541 Q411.2253,188.541 411.8188,188.2712 Q412.4123,188.0015 413.0431,187.4204 Z " /><text fill="#000000" font-family="sans-serif" font-size="12" lengthAdjust="spacingAndGlyphs" textLength="48" x="424.57" y="188.5352">exaction</text>
        <line style="stroke: #A80036; stroke-width: 1.5;" x1="396.57" x2="474.57" y1="200" y2="200" /><text fill="#000000" font-family="sans-serif" font-size="11" lengthAdjust="spacingAndGlyphs" textLength="54" x="401.57" y="214.6348">project_id</text><text fill="#000000" font-family="sans-serif" font-size="11" lengthAdjust="spacingAndGlyphs" textLength="29" x="401.57" y="227.5898">name</text>
        <line style="stroke: #A80036; stroke-width: 1.5;" x1="396.57" x2="474.57" y1="233.9102" y2="233.9102" />
        <!--MD5=[30bfca3641e1f474ff98c7db87ae71bb]
class hp_condition-->
        <rect fill="#FEFECE" filter="url(#f4kc5cn2w2ky7)" height="73.9102" id="hp_condition" style="stroke: #A80036; stroke-width: 1.5;" width="105" x="423.07" y="373.5" />
        <ellipse cx="438.07" cy="389.5" fill="#ADD1B2" rx="11" ry="11" style="stroke: #A80036; stroke-width: 1.0;" />
        <path d="M440.5431,395.6431 Q439.9621,395.9419 439.3229,396.0913 Q438.6838,396.2407 437.9782,396.2407 Q435.4714,396.2407 434.1515,394.5889 Q432.8317,392.937 432.8317,389.8159 Q432.8317,386.6865 434.1515,385.0347 Q435.4714,383.3828 437.9782,383.3828 Q438.6838,383.3828 439.3312,383.5322 Q439.9787,383.6816 440.5431,383.9805 L440.5431,386.7031 Q439.9123,386.1221 439.3188,385.8523 Q438.7253,385.5825 438.0944,385.5825 Q436.7497,385.5825 436.0649,386.6492 Q435.3801,387.7158 435.3801,389.8159 Q435.3801,391.9077 436.0649,392.9744 Q436.7497,394.041 438.0944,394.041 Q438.7253,394.041 439.3188,393.7712 Q439.9123,393.5015 440.5431,392.9204 Z " /><text fill="#000000" font-family="sans-serif" font-size="12" lengthAdjust="spacingAndGlyphs" textLength="73" x="452.07" y="394.0352">hp_condition</text>
        <line style="stroke: #A80036; stroke-width: 1.5;" x1="424.07" x2="527.07" y1="405.5" y2="405.5" /><text fill="#000000" font-family="sans-serif" font-size="11" lengthAdjust="spacingAndGlyphs" textLength="56" x="429.07" y="420.1348">exation_id</text><text fill="#000000" font-family="sans-serif" font-size="11" lengthAdjust="spacingAndGlyphs" textLength="28" x="429.07" y="433.0898">value</text>
        <line style="stroke: #A80036; stroke-width: 1.5;" x1="424.07" x2="527.07" y1="439.4102" y2="439.4102" />
        <!--MD5=[ab1f69f2f9ad76e35b1ee0295ece2a1c]
class action_routine-->
        <rect fill="#FEFECE" filter="url(#f4kc5cn2w2ky7)" height="151.6406" id="action_routine" style="stroke: #A80036; stroke-width: 1.5;" width="112" x="419.57" y="553" />
        <ellipse cx="434.57" cy="569" fill="#ADD1B2" rx="11" ry="11" style="stroke: #A80036; stroke-width: 1.0;" />
        <path d="M437.0431,575.1431 Q436.4621,575.4419 435.8229,575.5913 Q435.1838,575.7407 434.4782,575.7407 Q431.9714,575.7407 430.6515,574.0889 Q429.3317,572.437 429.3317,569.3159 Q429.3317,566.1865 430.6515,564.5347 Q431.9714,562.8828 434.4782,562.8828 Q435.1838,562.8828 435.8312,563.0322 Q436.4787,563.1816 437.0431,563.4805 L437.0431,566.2031 Q436.4123,565.6221 435.8188,565.3523 Q435.2253,565.0825 434.5944,565.0825 Q433.2497,565.0825 432.5649,566.1492 Q431.8801,567.2158 431.8801,569.3159 Q431.8801,571.4077 432.5649,572.4744 Q433.2497,573.541 434.5944,573.541 Q435.2253,573.541 435.8188,573.2712 Q436.4123,573.0015 437.0431,572.4204 Z " /><text fill="#000000" font-family="sans-serif" font-size="12" lengthAdjust="spacingAndGlyphs" textLength="80" x="448.57" y="573.5352">action_routine</text>
        <line style="stroke: #A80036; stroke-width: 1.5;" x1="420.57" x2="530.57" y1="585" y2="585" /><text fill="#000000" font-family="sans-serif" font-size="11" lengthAdjust="spacingAndGlyphs" textLength="87" x="425.57" y="599.6348">hp_condition_id</text><text fill="#000000" font-family="sans-serif" font-size="11" lengthAdjust="spacingAndGlyphs" textLength="52" x="425.57" y="612.5898">search_id</text><text fill="#000000" font-family="sans-serif" font-size="11" lengthAdjust="spacingAndGlyphs" textLength="66" x="425.57" y="625.5449">target_value</text><text fill="#000000" font-family="sans-serif" font-size="11" lengthAdjust="spacingAndGlyphs" textLength="54" x="425.57" y="638.5">motion_id</text><text fill="#000000" font-family="sans-serif" font-size="11" lengthAdjust="spacingAndGlyphs" textLength="37" x="425.57" y="651.4551">rate_id</text><text fill="#000000" font-family="sans-serif" font-size="11" lengthAdjust="spacingAndGlyphs" textLength="83" x="425.57" y="664.4102">rate_coefficient</text><text fill="#000000" font-family="sans-serif" font-size="11" lengthAdjust="spacingAndGlyphs" textLength="79" x="425.57" y="677.3652">cancel_type_id</text><text fill="#000000" font-family="sans-serif" font-size="11" lengthAdjust="spacingAndGlyphs" textLength="84" x="425.57" y="690.3203">action_chain_id</text>
        <line style="stroke: #A80036; stroke-width: 1.5;" x1="420.57" x2="530.57" y1="696.6406" y2="696.6406" />
        <!--MD5=[7c5c547f658d7adfacaaa95f832bfc27]
reverse link project to action_state-->
        <path d="M432.63,69 C483.21,97.34 569.11,145.47 623.51,175.95 " fill="none" id="project&lt;-action_state" style="stroke: #A80036; stroke-width: 1.0;" />
        <polygon fill="#A80036" points="428.15,66.49,434.0442,74.3804,432.5113,68.9352,437.9565,67.4023,428.15,66.49" style="stroke: #A80036; stroke-width: 1.0;" /><text fill="#000000" font-family="sans-serif" font-size="13" lengthAdjust="spacingAndGlyphs" textLength="8" x="436.1392" y="66.8521">1</text><text fill="#000000" font-family="sans-serif" font-size="13" lengthAdjust="spacingAndGlyphs" textLength="10" x="605.4231" y="168.1927">N</text>
        <!--MD5=[d5e6e258b8c3b4699b10e6721b30f667]
reverse link action_state to search-->
        <path d="M652.43,273.22 C644.92,297.12 636.49,323.91 629.11,347.37 " fill="none" id="action_state&lt;-search" style="stroke: #A80036; stroke-width: 1.0;" />
        <polygon fill="#A80036" points="654.02,268.16,647.505,275.5461,652.5205,272.9299,655.1368,277.9453,654.02,268.16" style="stroke: #A80036; stroke-width: 1.0;" /><text fill="#000000" font-family="sans-serif" font-size="13" lengthAdjust="spacingAndGlyphs" textLength="8" x="643.4442" y="288.4885">1</text><text fill="#000000" font-family="sans-serif" font-size="13" lengthAdjust="spacingAndGlyphs" textLength="10" x="620.7912" y="336.8053">N</text>
        <!--MD5=[3d58285593c9600d3b9320995f59eb5b]
reverse link action_state to rate-->
        <path d="M727.56,254.22 C751.06,276.02 778.45,302.55 801.57,328 C812.58,340.12 823.85,353.92 833.8,366.67 " fill="none" id="action_state&lt;-rate" style="stroke: #A80036; stroke-width: 1.0;" />
        <polygon fill="#A80036" points="723.82,250.76,727.7055,259.81,727.4885,254.1573,733.1412,253.9404,723.82,250.76" style="stroke: #A80036; stroke-width: 1.0;" /><text fill="#000000" font-family="sans-serif" font-size="13" lengthAdjust="spacingAndGlyphs" textLength="8" x="731.4489" y="253.7495">1</text><text fill="#000000" font-family="sans-serif" font-size="13" lengthAdjust="spacingAndGlyphs" textLength="10" x="818.1696" y="356.4125">N</text>
        <!--MD5=[a71197c8202aab46c40a94601fa99af5]
reverse link action_state to target-->
        <path d="M694.66,273.06 C705.19,306.52 717.5,345.68 726.23,373.44 " fill="none" id="action_state&lt;-target" style="stroke: #A80036; stroke-width: 1.0;" />
        <polygon fill="#A80036" points="693.12,268.16,692.0032,277.9453,694.6195,272.9299,699.635,275.5461,693.12,268.16" style="stroke: #A80036; stroke-width: 1.0;" /><text fill="#000000" font-family="sans-serif" font-size="13" lengthAdjust="spacingAndGlyphs" textLength="8" x="686.8208" y="288.4885">1</text><text fill="#000000" font-family="sans-serif" font-size="13" lengthAdjust="spacingAndGlyphs" textLength="10" x="713.2173" y="362.8295">N</text>
        <!--MD5=[eaa934e9086c2845d4adf70b9faa42fb]
reverse link project to action_chain-->
        <path d="M365.19,86.47 C350.21,109.44 331.48,138.17 316.29,161.48 " fill="none" id="project&lt;-action_chain" style="stroke: #A80036; stroke-width: 1.0;" />
        <polygon fill="#A80036" points="367.94,82.25,359.6743,87.6051,365.2095,86.4386,366.3761,91.9739,367.94,82.25" style="stroke: #A80036; stroke-width: 1.0;" /><text fill="#000000" font-family="sans-serif" font-size="13" lengthAdjust="spacingAndGlyphs" textLength="8" x="355.1911" y="102.5442">1</text><text fill="#000000" font-family="sans-serif" font-size="13" lengthAdjust="spacingAndGlyphs" textLength="10" x="310.053" y="150.635">N</text>
        <!--MD5=[457f794552ca518d09acf316e9a114bd]
reverse link action_chain to action_chain_cancel-->
        <path d="M248.49,252.61 C216.94,289.3 173.61,339.69 144.65,373.36 " fill="none" id="action_chain&lt;-action_chain_cancel" style="stroke: #A80036; stroke-width: 1.0;" />
        <polygon fill="#A80036" points="251.89,248.66,242.988,252.8736,248.629,252.4502,249.0523,258.0912,251.89,248.66" style="stroke: #A80036; stroke-width: 1.0;" /><text fill="#000000" font-family="sans-serif" font-size="13" lengthAdjust="spacingAndGlyphs" textLength="8" x="237.9151" y="268.7752">1</text><text fill="#000000" font-family="sans-serif" font-size="13" lengthAdjust="spacingAndGlyphs" textLength="10" x="139.4585" y="362.7348">N</text>
        <!--MD5=[c3aa13d97f82cee043f1ffb259021c9e]
reverse link cancel_condition to action_chain_cancel-->
        <path d="M113.57,273.47 C113.57,306.84 113.57,345.79 113.57,373.44 " fill="none" id="cancel_condition&lt;-action_chain_cancel" style="stroke: #A80036; stroke-width: 1.0;" />
        <polygon fill="#A80036" points="113.57,268.16,109.57,277.16,113.57,273.16,117.57,277.16,113.57,268.16" style="stroke: #A80036; stroke-width: 1.0;" /><text fill="#000000" font-family="sans-serif" font-size="13" lengthAdjust="spacingAndGlyphs" textLength="8" x="105.1325" y="288.4885">1</text><text fill="#000000" font-family="sans-serif" font-size="13" lengthAdjust="spacingAndGlyphs" textLength="10" x="102.6481" y="362.8295">N</text>
        <!--MD5=[c1ec8ffda52ed956d5312664284bfcc5]
reverse link action_chain to action_rule-->
        <path d="M283.87,253.87 C281.7,275.93 279.07,302.74 276.6,327.84 " fill="none" id="action_chain&lt;-action_rule" style="stroke: #A80036; stroke-width: 1.0;" />
        <polygon fill="#A80036" points="284.38,248.66,279.5238,257.2284,283.8938,253.6363,287.4859,258.0063,284.38,248.66" style="stroke: #A80036; stroke-width: 1.0;" /><text fill="#000000" font-family="sans-serif" font-size="13" lengthAdjust="spacingAndGlyphs" textLength="8" x="275.1771" y="268.7752">1</text><text fill="#000000" font-family="sans-serif" font-size="13" lengthAdjust="spacingAndGlyphs" textLength="10" x="266.8793" y="317.1297">N</text>
        <!--MD5=[26ebc0863d7e289129f83a8146016f21]
reverse link action_rule to action_rule_cancel-->
        <path d="M217.66,490.23 C195.14,525.05 169.77,564.29 151.88,591.96 " fill="none" id="action_rule&lt;-action_rule_cancel" style="stroke: #A80036; stroke-width: 1.0;" />
        <polygon fill="#A80036" points="220.39,486.01,212.1455,491.3978,217.6761,490.2094,218.8645,495.74,220.39,486.01" style="stroke: #A80036; stroke-width: 1.0;" /><text fill="#000000" font-family="sans-serif" font-size="13" lengthAdjust="spacingAndGlyphs" textLength="8" x="204.7261" y="493.6198">1</text><text fill="#000000" font-family="sans-serif" font-size="13" lengthAdjust="spacingAndGlyphs" textLength="10" x="145.2559" y="581.3532">N</text>
        <!--MD5=[a2d413d6a0744d7daff5be6ff2527086]
reverse link cancel_condition to action_rule_cancel-->
        <path d="M53.02,272.41 C40.95,289.38 30.02,308.41 23.57,328 C0.66,397.66 -0.23,423.64 23.57,493 C36.68,531.2 65.49,566.91 89.63,592 " fill="none" id="cancel_condition&lt;-action_rule_cancel" style="stroke: #A80036; stroke-width: 1.0;" />
        <polygon fill="#A80036" points="56.11,268.14,47.5909,273.0821,53.1768,272.1892,54.0696,277.7752,56.11,268.14" style="stroke: #A80036; stroke-width: 1.0;" /><text fill="#000000" font-family="sans-serif" font-size="13" lengthAdjust="spacingAndGlyphs" textLength="8" x="41.3878" y="288.4663">1</text><text fill="#000000" font-family="sans-serif" font-size="13" lengthAdjust="spacingAndGlyphs" textLength="10" x="71.2539" y="581.1237">N</text>
        <!--MD5=[16085303febc9aeb3123d6d89270ac37]
reverse link project to exaction-->
        <path d="M403.04,87.16 C410.01,112.2 418.83,143.87 425.53,167.92 " fill="none" id="project&lt;-exaction" style="stroke: #A80036; stroke-width: 1.0;" />
        <polygon fill="#A80036" points="401.67,82.25,400.2083,91.9898,403.0001,87.0698,407.9201,89.8616,401.67,82.25" style="stroke: #A80036; stroke-width: 1.0;" /><text fill="#000000" font-family="sans-serif" font-size="13" lengthAdjust="spacingAndGlyphs" textLength="8" x="394.7184" y="102.5442">1</text><text fill="#000000" font-family="sans-serif" font-size="13" lengthAdjust="spacingAndGlyphs" textLength="10" x="412.757" y="157.3058">N</text>
        <!--MD5=[71564452e46dff104162bfd98b6dc3b2]
reverse link project to cancel_condition-->
        <path d="M350.28,68.74 C315.35,88.05 264.04,116.59 219.57,142 C205.69,149.93 190.84,158.54 176.79,166.74 " fill="none" id="project&lt;-cancel_condition" style="stroke: #A80036; stroke-width: 1.0;" />
        <polygon fill="#A80036" points="354.88,66.2,345.0679,67.0496,350.5032,68.6173,348.9355,74.0526,354.88,66.2" style="stroke: #A80036; stroke-width: 1.0;" /><text fill="#000000" font-family="sans-serif" font-size="13" lengthAdjust="spacingAndGlyphs" textLength="8" x="339.1235" y="66.4181">1</text><text fill="#000000" font-family="sans-serif" font-size="13" lengthAdjust="spacingAndGlyphs" textLength="10" x="184.6779" y="159.0509">N</text>
        <!--MD5=[f6f5ec8ba84e20dbcd14f2a47a6e99dc]
reverse link exaction to hp_condition-->
        <path d="M443.77,247.72 C451.05,284.73 461.57,338.24 468.48,373.43 " fill="none" id="exaction&lt;-hp_condition" style="stroke: #A80036; stroke-width: 1.0;" />
        <polygon fill="#A80036" points="442.72,242.38,440.5412,251.9848,443.6896,247.2851,448.3894,250.4335,442.72,242.38" style="stroke: #A80036; stroke-width: 1.0;" /><text fill="#000000" font-family="sans-serif" font-size="13" lengthAdjust="spacingAndGlyphs" textLength="8" x="435.2417" y="262.4148">1</text><text fill="#000000" font-family="sans-serif" font-size="13" lengthAdjust="spacingAndGlyphs" textLength="10" x="456.2509" y="362.8177">N</text>
        <!--MD5=[abf54d2200a3435c12bb293d6c2317e2]
reverse link hp_condition to action_routine-->
        <path d="M475.57,452.9 C475.57,481.17 475.57,519.44 475.57,552.99 " fill="none" id="hp_condition&lt;-action_routine" style="stroke: #A80036; stroke-width: 1.0;" />
        <polygon fill="#A80036" points="475.57,447.74,471.57,456.74,475.57,452.74,479.57,456.74,475.57,447.74" style="stroke: #A80036; stroke-width: 1.0;" /><text fill="#000000" font-family="sans-serif" font-size="13" lengthAdjust="spacingAndGlyphs" textLength="8" x="466.8825" y="468.0325">1</text><text fill="#000000" font-family="sans-serif" font-size="13" lengthAdjust="spacingAndGlyphs" textLength="10" x="465.0778" y="542.3708">N</text>
        <!--MD5=[a6e126556a20e0fa9bd0b7d288b219da]
reverse link rate to action_routine-->
        <path d="M835.37,458.35 C825.7,470.8 814.19,483.43 801.57,493 C717.99,556.39 600.35,595.38 531.62,614.25 " fill="none" id="rate&lt;-action_routine" style="stroke: #A80036; stroke-width: 1.0;" />
        <polygon fill="#A80036" points="838.58,454.14,829.9418,458.871,835.5481,458.1158,836.3032,463.7221,838.58,454.14" style="stroke: #A80036; stroke-width: 1.0;" /><text fill="#000000" font-family="sans-serif" font-size="13" lengthAdjust="spacingAndGlyphs" textLength="10" x="823.6815" y="474.5733">N</text><text fill="#000000" font-family="sans-serif" font-size="13" lengthAdjust="spacingAndGlyphs" textLength="10" x="539.442" y="609.0105">N</text>
        <!--MD5=[ff9d5a11e8b2e372c3232c17f889c093]
reverse link action_chain to action_routine-->
        <path d="M306.43,253.57 C328.33,310.96 367.28,410.09 405.57,493 C414.65,512.65 425.1,533.57 435.1,552.92 " fill="none" id="action_chain&lt;-action_routine" style="stroke: #A80036; stroke-width: 1.0;" />
        <polygon fill="#A80036" points="304.63,248.83,304.081,258.6635,306.4028,253.5052,311.5612,255.827,304.63,248.83" style="stroke: #A80036; stroke-width: 1.0;" /><text fill="#000000" font-family="sans-serif" font-size="13" lengthAdjust="spacingAndGlyphs" textLength="10" x="296.2544" y="268.9702">N</text><text fill="#000000" font-family="sans-serif" font-size="13" lengthAdjust="spacingAndGlyphs" textLength="10" x="420.624" y="542.2939">N</text>
        <!--MD5=[2c43a77156167bc72eb3d7ad34af8110]
@startuml

class project {
  id
  name
}

class action_state {
  id
  project_id
  chara
  field
  freq
  precis
}

class search {
  action_state_id
  name
  x1
  y1
  x2
  y2
}

class rate {
  action_state_id
  name
  value
}
class target {
  action_state_id
  value
}

project "1" <-up- "N" action_state
action_state "1" <-up- "N" search
action_state "1" <-up- "N" rate
action_state "1" <-up- "N" target

class action_chain {
  id
  project_id
  name
}

class cancel_condition {
  project_id
  cancel_type
  rate
  rate_coefficient
  parameter1
  parameter2
}

class action_chain_cancel {
  action_chain_id
  cancel_condition_id
}

class action_rule {
  id
  action_chain_id
  motion_id
  move_x
  move_y
  next
  search_id
  target_value
  hold
}

class action_rule_cancel {
  action_rule_id
  cancel_condition_id
}

project "1" <-up- "N" action_chain
action_chain "1" <-up- "N" action_chain_cancel
cancel_condition "1" <-up- "N" action_chain_cancel
action_chain "1" <-up- "N" action_rule
action_rule "1" <-up- "N" action_rule_cancel
cancel_condition "1" <-up- "N" action_rule_cancel

class exaction {
  project_id
  name
}

class hp_condition {
  exation_id
  value
}

class action_routine {
  hp_condition_id
  search_id
  target_value
  motion_id
  rate_id
  rate_coefficient
  cancel_type_id
  action_chain_id
}

project "1" <-up- "N" exaction
project "1" <-up- "N" cancel_condition
exaction "1" <-up- "N" hp_condition
hp_condition "1" <-up- "N" action_routine
rate "N" <-up- "N" action_routine
action_chain "N" <- "N" action_routine

@enduml

PlantUML version 1.2019.11(Sun Sep 22 19:02:15 JST 2019)
(GPL source distribution)
Java Runtime: Java(TM) SE Runtime Environment
JVM: Java HotSpot(TM) 64-Bit Server VM
Java Version: 11.0.1+13-LTS
Operating System: Mac OS X
Default Encoding: UTF-8
Language: ja
Country: JP
-->
    </g>
</svg>